<svg width="160" height="160" viewBox="0 0 160 160" fill="none" xmlns="http://www.w3.org/2000/svg">
<g clip-path="url(#clip0_7493_45569)">
<path d="M80.413 79.7247L148.617 40.3387L80.4141 0.952271L12.1951 40.3482L80.413 79.7247Z" fill="#F69421"/>
<path d="M110.734 61.9955C110.567 61.6663 110.396 61.3408 110.221 61.0206C106.876 54.8968 101.842 50.0667 95.663 47.0538C79.5503 39.1951 59.4225 45.8928 49.8461 62.3042L48.1898 61.3377C58.2699 44.0661 79.4911 37.035 96.5032 45.3314C103.042 48.5199 108.367 53.6278 111.904 60.1017C112.102 60.4639 112.295 60.8329 112.482 61.2056L110.734 61.9955Z" fill="white"/>
<path d="M127.601 52.0249C127.238 51.5788 126.863 51.1196 126.579 50.66C121.001 41.6376 113.633 34.8497 104.678 30.4819C79.0602 17.989 47.5912 27.6986 33.0342 52.5852L31.3789 51.6165C46.4401 25.8714 79.0047 15.83 105.518 28.7584C114.804 33.2872 122.439 40.3167 128.21 49.6509C128.428 50.0042 128.749 50.3979 129.088 50.8135L127.601 52.0249Z" fill="white"/>
<path d="M80.413 80.6771C80.2484 80.6771 80.0844 80.6346 79.9371 80.5497L11.7192 41.1732C11.4246 41.0028 11.2432 40.6889 11.2432 40.3482C11.2432 40.0085 11.4246 39.6935 11.7192 39.5231L79.9381 0.127764C80.2327 -0.042588 80.5959 -0.042588 80.8905 0.127764L149.093 39.5137C149.388 39.6841 149.569 39.998 149.569 40.3387C149.569 40.6789 149.388 40.9934 149.093 41.1638L80.8895 80.5497C80.7422 80.6341 80.5776 80.6771 80.413 80.6771ZM14.0999 40.3482L80.413 78.625L146.713 40.3387L80.4141 2.05196L14.0999 40.3482Z" fill="white"/>
<path d="M81.0242 159.572L12.1993 119.845V40.3497L81.0242 80.0947V159.572Z" fill="#08B1D5"/>
<path d="M83.3258 136.479C44.1605 124.811 20.8207 86.7049 31.2987 51.5348L31.381 51.2837L33.2166 51.8383L33.1353 52.0857C22.9603 86.2389 45.7209 123.276 83.8735 134.643L83.3258 136.479Z" fill="white"/>
<path d="M50.333 62.1129C48.7186 71.7643 50.6732 81.9681 55.9326 90.7551C62.7111 102.081 74.1446 109.9 88.1266 112.772L87.7413 114.651C73.2262 111.669 61.3456 103.532 54.2873 91.7395C48.7086 82.4184 46.6906 71.5625 48.5236 61.3267L50.333 62.1129Z" fill="white"/>
<path d="M81.0242 160.524C80.8596 160.524 80.6956 160.482 80.5483 160.397L11.7239 120.671C11.4293 120.5 11.248 120.186 11.248 119.846V40.3498C11.248 40.0096 11.4293 39.6951 11.7239 39.5247C12.0185 39.3544 12.3817 39.3544 12.6763 39.5247L81.5007 79.2697C81.7953 79.4401 81.9766 79.7541 81.9766 80.0948V159.572C81.9766 159.912 81.7953 160.227 81.5007 160.397C81.3529 160.482 81.1883 160.524 81.0242 160.524ZM13.1517 119.296L80.0718 157.923V80.6441L13.1517 41.9993V119.296Z" fill="white"/>
<path d="M81.0242 159.587L148.627 119.862V40.366L80.4062 80.1104L81.0242 159.587Z" fill="#0D819B"/>
<path d="M80.11 133.648C116.351 121.228 137.583 85.3022 127.691 52.0982L127.612 51.8592L129.444 51.2952L129.529 51.5515C139.744 85.8394 117.816 122.919 80.4172 135.568L80.11 133.648Z" fill="white"/>
<path d="M79.8034 110.893C91.6872 107.038 100.66 100.384 105.984 91.4076C111.061 82.8492 112.63 72.5546 110.542 62.0059L112.358 61.3114C114.635 72.4362 113.006 83.3272 107.633 92.3857C101.976 101.924 92.4305 108.937 79.8029 112.906L79.8034 110.893Z" fill="white"/>
<path d="M81.0242 160.524C80.8623 160.524 80.7003 160.483 80.5546 160.4C80.2584 160.232 80.075 159.919 80.0724 159.579L79.4544 80.1178C79.4518 79.7761 79.6321 79.4595 79.9272 79.2876L148.149 39.5426C148.443 39.3717 148.807 39.3707 149.103 39.54C149.398 39.7103 149.58 40.0248 149.58 40.3655V119.861C149.58 120.199 149.402 120.511 149.111 120.683L81.507 160.393C81.3576 160.481 81.1909 160.524 81.0242 160.524ZM81.3623 80.6556L81.9635 157.916L147.675 119.317V42.0224L81.3623 80.6556Z" fill="white"/>
<path d="M67.9584 71.6745C67.8997 71.771 67.9265 72.0954 67.9265 72.0954C67.916 72.2317 67.9008 72.5137 67.8934 72.6495C67.4652 80.4699 72.092 87.6761 79.8076 91.1476L79.9664 91.2273C79.9691 91.2263 79.9717 91.2247 79.9748 91.2236C80.0393 91.2525 80.0807 91.1791 80.0807 91.1791C89.5717 86.5502 93.3624 80.3468 92.844 72.1002L92.8341 71.8999C92.7298 71.6777 92.6254 71.4554 92.5101 71.2395C91.2065 68.7943 89.1969 66.7595 86.5882 65.4873C80.0225 62.2852 71.9971 65.0591 67.9668 71.6604" fill="#F0DF36"/>
<path d="M79.871 92.2525L79.3778 92.0051C71.3859 88.4088 66.4881 80.7849 66.9363 72.5975C66.9431 72.4728 66.9552 72.2458 66.9657 72.0938C66.9316 71.5173 67.082 71.2709 67.1397 71.1755L68.7777 72.1714C68.7798 72.1677 68.7824 72.1641 68.7845 72.1593L67.1491 71.1603C71.4991 64.0359 80.0366 61.2254 87.009 64.6256C89.7158 65.9459 91.9104 68.0772 93.3566 70.7887C93.4798 71.0193 93.5925 71.2567 93.7031 71.4947L93.7828 71.6651L93.8021 72.0514C94.3614 80.9453 90.1771 87.2835 80.6342 91.9763C80.4796 92.0942 80.2961 92.1666 80.1048 92.1849L79.871 92.2525ZM68.8809 72.0052C68.8815 72.0115 68.882 72.0163 68.882 72.0178L68.8877 72.0917L68.8825 72.1688C68.8726 72.2977 68.8584 72.5645 68.8516 72.6971C68.4511 80.0118 72.8069 86.8416 79.9685 90.1674C88.6004 85.8682 92.3901 80.1381 91.8879 72.1604L91.8869 72.1373C91.8156 71.9874 91.7427 71.838 91.6646 71.6913C90.4093 69.3378 88.5092 67.4901 86.1683 66.3485C80.1389 63.4106 72.7409 65.8432 68.8809 72.0052Z" fill="white"/>
</g>
<defs>
<clipPath id="clip0_7493_45569">
<rect width="160" height="160" fill="white"/>
</clipPath>
</defs>
</svg>
