<svg width="160" height="160" viewBox="0 0 160 160" fill="none" xmlns="http://www.w3.org/2000/svg">
<path d="M81.623 95.4711C85.1079 108.118 90.5378 118.479 97.9132 129.18C106.828 141.178 120.12 150.988 133.411 159.338C137.301 160.473 141.921 160.149 146.54 158.365C149.539 155.122 150.836 150.907 150.43 146.448C144.028 132.909 138.72 119.613 128.67 108.387C117.485 97.7666 109.583 91.1106 94.509 83.8956L88.6738 90.2678L81.623 95.4726V95.4711Z" fill="#4D4D4D"/>
<path opacity="0.2" d="M97.4292 89.7799C96.6736 92.4377 110.978 101.54 123 116.26C129.182 125.119 143.713 146.648 145.567 144.672C142.082 132.381 135.062 122.549 127.463 111.033C117.158 103.059 109.795 93.8691 97.4292 89.7799Z" fill="#D0F2D0"/>
<path opacity="0.7" d="M77.0022 89.0504L83.2022 84.0159L88.6727 78.106L94.508 83.7971L88.5998 90.4367L81.5975 95.763L77.0022 89.0504Z" fill="url(#paint0_linear_7493_45619)"/>
<path d="M107.152 50.6685C106.804 63.2963 101.45 75.2769 92.2507 84.0135C83.0513 92.7502 70.7478 97.539 58.0068 97.342C45.2658 97.1451 33.1139 91.9782 24.1849 82.9613C15.2559 73.9444 10.2692 61.804 10.3057 49.1714C10.3422 36.5388 15.3988 24.4318 24.3797 15.4746C33.3606 6.51728 45.5421 1.43141 58.284 1.31926C71.0259 1.20711 83.3016 6.07771 92.4503 14.8754C101.599 23.6731 106.884 35.6891 107.159 48.3189" fill="black"/>
<path d="M95.4835 50.8375C95.2184 60.4523 91.1419 69.5743 84.1375 76.2264C77.1331 82.8784 67.7652 86.5246 58.0642 86.3747C48.3632 86.2247 39.1107 82.2907 32.3122 75.4252C25.5137 68.5598 21.7168 59.3161 21.7446 49.6976C21.7724 40.0792 25.6225 30.8609 32.4606 24.0409C39.2986 17.2208 48.5736 13.3484 58.2753 13.263C67.9769 13.1776 77.3236 16.8861 84.2895 23.5847C91.2553 30.2833 95.2791 39.4322 95.4887 49.0485" fill="white"/>
<path d="M90.0309 50.6096C90.0309 51.2905 89.7822 51.8798 89.2847 52.3775C88.7872 52.8751 88.1981 53.1239 87.5173 53.1239H78.7197C78.7197 57.6026 77.8426 61.4003 76.0883 64.5171L84.2575 72.728C84.755 73.2257 85.0037 73.815 85.0037 74.4959C85.0037 75.1769 84.755 75.7662 84.2575 76.2638C83.7862 76.7615 83.1971 77.0103 82.4901 77.0103C81.7832 77.0103 81.1941 76.7615 80.7228 76.2638L72.9463 68.5243C72.8154 68.6553 72.619 68.8255 72.3572 69.0351C72.0954 69.2446 71.5455 69.6178 70.7077 70.1548C69.8698 70.6917 69.0188 71.1697 68.1548 71.5887C67.2907 72.0078 66.2172 72.3876 64.9342 72.728C63.6513 73.0685 62.3814 73.2388 61.1246 73.2388V38.0378H56.0974V73.2388C54.762 73.2388 53.4332 73.062 52.111 72.7084C50.7887 72.3548 49.6497 71.9227 48.6941 71.4119C47.7384 70.9012 46.8743 70.3905 46.1019 69.8797C45.3295 69.369 44.76 68.9434 44.3935 68.6029L43.8043 68.0529L36.617 76.1853C36.0934 76.7353 35.465 77.0103 34.7318 77.0103C34.1034 77.0103 33.5405 76.8008 33.043 76.3817C32.5455 75.9103 32.2771 75.3275 32.2379 74.6335C32.1986 73.9394 32.4016 73.3304 32.8466 72.8066L40.7802 63.8885C39.2615 60.9027 38.5022 57.3145 38.5022 53.1239H29.7046C29.0239 53.1239 28.4348 52.8751 27.9373 52.3775C27.4398 51.8798 27.191 51.2905 27.191 50.6096C27.191 49.9286 27.4398 49.3393 27.9373 48.8416C28.4348 48.344 29.0239 48.0952 29.7046 48.0952H38.5022V36.5449L31.7076 29.7483C31.2102 29.2506 30.9614 28.6613 30.9614 27.9804C30.9614 27.2994 31.2102 26.7101 31.7076 26.2124C32.2051 25.7148 32.7943 25.466 33.475 25.466C34.1558 25.466 34.7449 25.7148 35.2424 26.2124L42.037 33.0091H75.185L81.9796 26.2124C82.477 25.7148 83.0662 25.466 83.747 25.466C84.4277 25.466 85.0168 25.7148 85.5143 26.2124C86.0118 26.7101 86.2605 27.2994 86.2605 27.9804C86.2605 28.6613 86.0118 29.2506 85.5143 29.7483L78.7197 36.5449V48.0952H87.5173C88.1981 48.0952 88.7872 48.344 89.2847 48.8416C89.7822 49.3393 90.0309 49.9286 90.0309 50.6096ZM71.1789 27.9804H46.043C46.043 24.4969 47.2671 21.5308 49.7152 19.0819C52.1633 16.633 55.1286 15.4086 58.611 15.4086C62.0934 15.4086 65.0586 16.633 67.5068 19.0819C69.9549 21.5308 71.1789 24.4969 71.1789 27.9804Z" fill="#FF0000"/>
<path opacity="0.15" d="M35.9522 25.1749C51.8304 12.0521 67.2718 13.6018 81.5533 22.9959C93.9943 34.569 97.2863 50.0647 87.9433 66.4318C84.9176 67.1097 84.2522 54.3502 82.3341 48.055C80.2706 42.4862 75.6475 35.8282 71.9684 32.5837C67.5148 29.3392 62.698 28.1289 57.3911 27.3903C49.4702 26.7971 36.5572 28.1288 35.9522 25.1749Z" fill="#7F7F7F"/>
<defs>
<linearGradient id="paint0_linear_7493_45619" x1="94.0976" y1="78.3129" x2="87.2589" y2="86.4627" gradientUnits="userSpaceOnUse">
<stop stop-color="white"/>
<stop offset="1" stop-color="#444343"/>
</linearGradient>
</defs>
</svg>
