<svg width="160" height="160" viewBox="0 0 160 160" fill="none" xmlns="http://www.w3.org/2000/svg">
<g clip-path="url(#clip0_7493_45623)">
<path d="M0 0H160V160H0V0Z" fill="#F7DF1E"/>
<path d="M42.0698 133.708L54.3142 126.298C56.6763 130.486 58.8251 134.029 63.9794 134.029C68.9201 134.029 72.035 132.097 72.035 124.579V73.4554H87.071V124.792C87.071 140.365 77.9423 147.454 64.624 147.454C52.5958 147.454 45.6137 141.224 42.0696 133.706" fill="black"/>
<path d="M95.238 132.097L107.481 125.008C110.704 130.271 114.892 134.137 122.303 134.137C128.533 134.137 132.506 131.022 132.506 126.726C132.506 121.571 128.425 119.745 121.551 116.739L117.793 115.127C106.944 110.509 99.7483 104.71 99.7483 92.4655C99.7483 81.1883 108.34 72.5958 121.766 72.5958C131.325 72.5958 138.199 75.9256 143.138 84.6253L131.432 92.143C128.854 87.5251 126.062 85.6996 121.766 85.6996C117.363 85.6996 114.57 88.4919 114.57 92.143C114.57 96.654 117.363 98.4803 123.806 101.273L127.565 102.884C140.346 108.362 147.542 113.946 147.542 126.512C147.542 140.045 136.909 147.455 122.625 147.455C108.663 147.455 99.6408 140.796 95.238 132.097Z" fill="black"/>
</g>
<defs>
<clipPath id="clip0_7493_45623">
<rect width="160" height="160" fill="white"/>
</clipPath>
</defs>
</svg>
