<svg width="160" height="160" viewBox="0 0 160 160" fill="none" xmlns="http://www.w3.org/2000/svg">
<path d="M80 160C77.8398 160.001 75.7175 159.433 73.8465 158.354L54.265 146.771C51.3427 145.137 52.7667 144.56 53.7332 144.223C56.8412 143.263 59.8171 141.919 62.5917 140.223C62.824 140.115 63.0798 140.069 63.335 140.088C63.5902 140.107 63.8363 140.191 64.05 140.331L79.0964 149.263C79.3766 149.411 79.6888 149.488 80.0057 149.488C80.3227 149.488 80.6349 149.411 80.915 149.263L139.591 115.422C139.865 115.258 140.093 115.025 140.25 114.747C140.407 114.468 140.49 114.153 140.489 113.834V46.1413C140.489 45.8164 140.405 45.4969 140.246 45.2137C140.087 44.9304 139.857 44.6929 139.579 44.5241L80.9036 10.7122C80.6269 10.5565 80.3147 10.4747 79.9972 10.4747C79.6796 10.4747 79.3674 10.5565 79.0907 10.7122L20.4493 44.5355C20.1695 44.7008 19.9373 44.9355 19.775 45.2168C19.6126 45.4981 19.5258 45.8166 19.5228 46.1413V113.805C19.5236 114.124 19.6093 114.437 19.7711 114.712C19.9329 114.988 20.1649 115.215 20.4435 115.371L36.5365 124.651C45.2578 129.005 50.5992 123.874 50.5992 118.719V51.9128C50.5992 51.6877 50.6436 51.4647 50.7298 51.2567C50.816 51.0488 50.9424 50.8598 51.1017 50.7006C51.261 50.5414 51.4502 50.4151 51.6583 50.329C51.8665 50.2428 52.0896 50.1985 52.3149 50.1985H59.7494C60.2045 50.1985 60.6408 50.3791 60.9626 50.7006C61.2843 51.0221 61.4651 51.4581 61.4651 51.9128V118.725C61.4651 130.354 55.1286 137.011 44.0911 137.011C39.3295 137.094 34.6424 135.822 30.5774 133.342L15.1536 124.502C13.2811 123.413 11.7275 121.852 10.6477 119.974C9.56792 118.097 8.99979 115.97 9.00004 113.805V46.1413C8.99448 43.9728 9.5602 41.8411 10.6404 39.9604C11.7205 38.0796 13.2771 36.5161 15.1536 35.4268L73.8351 1.57494C75.7253 0.5416 77.8454 0 80 0C82.1547 0 84.2747 0.5416 86.165 1.57494L144.841 35.4268C146.713 36.5142 148.267 38.0733 149.348 39.9483C150.429 41.8234 150.998 43.9489 151 46.1127V113.805C150.997 115.97 150.427 118.097 149.346 119.973C148.266 121.85 146.712 123.411 144.841 124.502L86.165 158.354C84.2905 159.435 82.1641 160.003 80 160Z" fill="#83CD29"/>
<path d="M69.3401 90.6738C69.3401 90.2159 69.5222 89.7768 69.8465 89.4531C70.1708 89.1293 70.6106 88.9474 71.0692 88.9474H78.7176C79.1262 88.9487 79.5212 89.0945 79.8325 89.3589C80.1437 89.6234 80.3511 89.9893 80.4179 90.3918C81.5706 98.1663 85.0288 102.085 100.666 102.085C113.121 102.085 118.429 99.2712 118.429 92.6707C118.429 88.8668 116.925 86.0413 97.5648 84.148C81.3804 82.5483 71.3746 78.9689 71.3746 66.0555C71.3746 54.1434 81.4323 47.0364 98.291 47.0364C117.236 47.0364 126.614 53.6024 127.801 67.6898C127.819 67.925 127.789 68.1614 127.712 68.3844C127.635 68.6074 127.513 68.8124 127.354 68.9865C127.195 69.1607 127.001 69.3004 126.786 69.3971C126.57 69.4938 126.337 69.5453 126.101 69.5485H118.401C118.014 69.5431 117.641 69.4087 117.34 69.1667C117.039 68.9248 116.828 68.5892 116.741 68.2135C114.902 60.0361 110.401 57.4235 98.2968 57.4235C84.6945 57.4235 83.1153 62.1538 83.1153 65.6987C83.1153 69.9916 84.9827 71.2461 103.346 73.6688C121.519 76.0685 130.153 79.4638 130.153 92.2161C130.153 105.083 119.409 112.449 100.671 112.449C74.7637 112.484 69.3401 100.624 69.3401 90.6738Z" fill="#83CD29"/>
</svg>
