<svg width="160" height="160" viewBox="0 0 160 160" fill="none" xmlns="http://www.w3.org/2000/svg">
<g clip-path="url(#clip0_7493_45516)">
<path d="M156.983 72.8709L87.1242 3.01778C83.104 -1.00593 76.5787 -1.00593 72.5532 3.01778L58.0471 17.5239L76.4488 35.9255C80.7253 34.4807 85.6285 35.4497 89.0378 38.859C92.4629 42.2893 93.4249 47.2347 91.945 51.5253L109.679 69.2598C113.97 67.7816 118.921 68.7384 122.348 72.1705C127.137 76.9579 127.137 84.7174 122.348 89.5082C117.557 94.2991 109.797 94.2991 105.004 89.5082C101.402 85.9024 100.512 80.6111 102.336 76.1731L85.797 59.6341L85.7953 103.158C86.9627 103.737 88.0652 104.508 89.0378 105.477C93.8269 110.264 93.8269 118.024 89.0378 122.818C84.2469 127.607 76.4839 127.607 71.7 122.818C66.9109 118.024 66.9109 110.264 71.7 105.477C72.8833 104.295 74.2526 103.402 75.7132 102.801V58.8722C74.2526 58.2753 72.885 57.387 71.7 56.1968C68.0713 52.5733 67.1988 47.2488 69.0579 42.7932L50.9196 24.6514L3.01956 72.5479C-1.00591 76.5751 -1.00591 83.1005 3.01956 87.1242L72.878 156.979C76.8999 161.003 83.4235 161.003 87.4508 156.979L156.983 87.449C161.006 83.4235 161.006 76.8946 156.983 72.8709Z" fill="#DE4C36"/>
</g>
<defs>
<clipPath id="clip0_7493_45516">
<rect width="160" height="160" fill="white"/>
</clipPath>
</defs>
</svg>
