<svg width="68" height="66" viewBox="0 0 68 66" fill="none" xmlns="http://www.w3.org/2000/svg">
<path fill-rule="evenodd" clip-rule="evenodd" d="M50.6383 42.4724L15.5319 63.3184L60.9881 60.2338L64.4891 14.3984L50.6383 42.4724Z" fill="url(#paint0_linear_7426_44718)"/>
<path fill-rule="evenodd" clip-rule="evenodd" d="M57.1555 33.2365L46.5134 47.289L61.0625 60.2025L57.1555 33.2365Z" fill="url(#paint1_linear_7426_44718)"/>
<path fill-rule="evenodd" clip-rule="evenodd" d="M32.4922 57.9556L15.6838 63.2597L61.1152 60.2025L32.4922 57.9556Z" fill="url(#paint2_linear_7426_44718)"/>
<path fill-rule="evenodd" clip-rule="evenodd" d="M22.8746 39.8406L7.14001 43.2051L15.7242 63.2656L22.8746 39.8406Z" fill="url(#paint3_linear_7426_44718)"/>
<path fill-rule="evenodd" clip-rule="evenodd" d="M39.9313 21.5953L21.1025 39.2448L46.5106 47.3666L39.9313 21.5953Z" fill="url(#paint4_linear_7426_44718)"/>
<path fill-rule="evenodd" clip-rule="evenodd" d="M45.1979 7.42175L40.2417 23.445L62.9963 21.9584L45.1979 7.42175Z" fill="url(#paint5_linear_7426_44718)"/>
<path fill-rule="evenodd" clip-rule="evenodd" d="M44.2048 8.02383L37.6006 2.16138L54.6728 2.23896L44.2048 8.02383Z" fill="url(#paint6_linear_7426_44718)"/>
<path fill-rule="evenodd" clip-rule="evenodd" d="M7.3852 43.0651L3.83794 33.5375L3 51.0628L7.3852 43.0651Z" fill="url(#paint7_linear_7426_44718)"/>
<path fill-rule="evenodd" clip-rule="evenodd" d="M3.60205 33.2364L7.17104 43.36L22.6791 39.8807L40.3844 23.4261L45.381 7.55521L37.5134 2L24.1374 7.0059C19.9232 10.9256 11.7456 18.6812 11.4507 18.827C11.159 18.976 6.05069 28.6309 3.60205 33.2364Z" fill="white"/>
<path fill-rule="evenodd" clip-rule="evenodd" d="M16.1339 15.0501C25.2674 5.99418 37.042 0.643799 41.5606 5.2028C46.0765 9.76179 41.2875 20.8412 32.154 29.894C23.0205 38.9468 11.3918 44.592 6.87624 40.033C2.35759 35.4771 7.00038 24.1029 16.1339 15.0501Z" fill="url(#paint8_linear_7426_44718)"/>
<path fill-rule="evenodd" clip-rule="evenodd" d="M15.7242 63.2563L22.8188 39.7568L46.3803 47.3262C37.8613 55.3145 28.3864 62.0677 15.7242 63.2563Z" fill="url(#paint9_linear_7426_44718)"/>
<path fill-rule="evenodd" clip-rule="evenodd" d="M40.4154 23.3798L46.4641 47.3386C53.5803 39.8561 59.9673 31.8119 63.0953 21.8622L40.4154 23.3798Z" fill="url(#paint10_linear_7426_44718)"/>
<path fill-rule="evenodd" clip-rule="evenodd" d="M63.0335 21.9833C65.4542 14.6777 66.0128 4.19728 54.598 2.2514L45.2317 7.42489L63.0335 21.9833Z" fill="url(#paint11_linear_7426_44718)"/>
<path fill-rule="evenodd" clip-rule="evenodd" d="M3 50.9573C3.33517 63.0145 12.0342 63.1942 15.7397 63.3001L7.18037 43.3103L3 50.9573Z" fill="#9E1209"/>
<path fill-rule="evenodd" clip-rule="evenodd" d="M40.4492 23.4171C45.9175 26.7781 56.9383 33.5282 57.1617 33.6523C57.509 33.8478 61.9131 26.2257 62.9124 21.9181L40.4492 23.4171Z" fill="url(#paint12_radial_7426_44718)"/>
<path fill-rule="evenodd" clip-rule="evenodd" d="M22.8094 39.7568L32.2937 58.0549C37.9016 55.0135 42.293 51.3079 46.3151 47.3386L22.8094 39.7568Z" fill="url(#paint13_radial_7426_44718)"/>
<path fill-rule="evenodd" clip-rule="evenodd" d="M7.14312 43.3351L5.79932 59.3366C8.33485 62.8001 11.8232 63.1011 15.4821 62.8311C12.8349 56.2424 7.54657 43.0682 7.14312 43.3351Z" fill="url(#paint14_linear_7426_44718)"/>
<path fill-rule="evenodd" clip-rule="evenodd" d="M45.1761 7.4652L64.0173 10.1094C63.0118 5.84829 59.9238 3.09861 54.6604 2.23895L45.1761 7.4652Z" fill="url(#paint15_linear_7426_44718)"/>
<defs>
<linearGradient id="paint0_linear_7426_44718" x1="57.0233" y1="68.8949" x2="44.0516" y2="45.9927" gradientUnits="userSpaceOnUse">
<stop stop-color="#FB7655"/>
<stop offset="0.41" stop-color="#E42B1E"/>
<stop offset="0.99" stop-color="#990000"/>
<stop offset="1" stop-color="#990000"/>
</linearGradient>
<linearGradient id="paint1_linear_7426_44718" x1="63.4851" y1="49.6562" x2="46.7675" y2="38.4376" gradientUnits="userSpaceOnUse">
<stop stop-color="#871101"/>
<stop offset="0.99" stop-color="#911209"/>
<stop offset="1" stop-color="#911209"/>
</linearGradient>
<linearGradient id="paint2_linear_7426_44718" x1="50.1092" y1="69.589" x2="33.3921" y2="58.3708" gradientUnits="userSpaceOnUse">
<stop stop-color="#871101"/>
<stop offset="0.99" stop-color="#911209"/>
<stop offset="1" stop-color="#911209"/>
</linearGradient>
<linearGradient id="paint3_linear_7426_44718" x1="15.0093" y1="41.5353" x2="17.6009" y2="58.3781" gradientUnits="userSpaceOnUse">
<stop stop-color="white"/>
<stop offset="0.23" stop-color="#E57252"/>
<stop offset="0.46" stop-color="#DE3B20"/>
<stop offset="0.99" stop-color="#A60003"/>
<stop offset="1" stop-color="#A60003"/>
</linearGradient>
<linearGradient id="paint4_linear_7426_44718" x1="32.8345" y1="25.8084" x2="33.7894" y2="42.9975" gradientUnits="userSpaceOnUse">
<stop stop-color="white"/>
<stop offset="0.23" stop-color="#E4714E"/>
<stop offset="0.56" stop-color="#BE1A0D"/>
<stop offset="0.99" stop-color="#A80D00"/>
<stop offset="1" stop-color="#A80D00"/>
</linearGradient>
<linearGradient id="paint5_linear_7426_44718" x1="48.653" y1="9.92036" x2="51.5117" y2="22.2396" gradientUnits="userSpaceOnUse">
<stop stop-color="white"/>
<stop offset="0.18" stop-color="#E46342"/>
<stop offset="0.4" stop-color="#C82410"/>
<stop offset="0.99" stop-color="#A80D00"/>
<stop offset="1" stop-color="#A80D00"/>
</linearGradient>
<linearGradient id="paint6_linear_7426_44718" x1="39.9239" y1="5.58187" x2="52.2423" y2="-0.577374" gradientUnits="userSpaceOnUse">
<stop stop-color="white"/>
<stop offset="0.54" stop-color="#C81F11"/>
<stop offset="0.99" stop-color="#BF0905"/>
<stop offset="1" stop-color="#BF0905"/>
</linearGradient>
<linearGradient id="paint7_linear_7426_44718" x1="4.21138" y1="37.2414" x2="5.22525" y2="47.3922" gradientUnits="userSpaceOnUse">
<stop stop-color="white"/>
<stop offset="0.31" stop-color="#DE4024"/>
<stop offset="0.99" stop-color="#BF190B"/>
<stop offset="1" stop-color="#BF190B"/>
</linearGradient>
<linearGradient id="paint8_linear_7426_44718" x1="-2.7587" y1="50.1362" x2="44.9016" y2="1.12816" gradientUnits="userSpaceOnUse">
<stop stop-color="#BD0012"/>
<stop offset="0.07" stop-color="white"/>
<stop offset="0.17" stop-color="white"/>
<stop offset="0.27" stop-color="#C82F1C"/>
<stop offset="0.33" stop-color="#820C01"/>
<stop offset="0.46" stop-color="#A31601"/>
<stop offset="0.72" stop-color="#B31301"/>
<stop offset="0.99" stop-color="#E82609"/>
<stop offset="1" stop-color="#E82609"/>
</linearGradient>
<linearGradient id="paint9_linear_7426_44718" x1="33.7476" y1="55.0797" x2="19.3918" y2="51.5366" gradientUnits="userSpaceOnUse">
<stop stop-color="#8C0C01"/>
<stop offset="0.54" stop-color="#990C00"/>
<stop offset="0.99" stop-color="#A80D0E"/>
<stop offset="1" stop-color="#A80D0E"/>
</linearGradient>
<linearGradient id="paint10_linear_7426_44718" x1="58.405" y1="37.8496" x2="45.6518" y2="26.4193" gradientUnits="userSpaceOnUse">
<stop stop-color="#7E110B"/>
<stop offset="0.99" stop-color="#9E0C00"/>
<stop offset="1" stop-color="#9E0C00"/>
</linearGradient>
<linearGradient id="paint11_linear_7426_44718" x1="63.0905" y1="16.8771" x2="56.7379" y2="10.0857" gradientUnits="userSpaceOnUse">
<stop stop-color="#79130D"/>
<stop offset="0.99" stop-color="#9E120B"/>
<stop offset="1" stop-color="#9E120B"/>
</linearGradient>
<radialGradient id="paint12_radial_7426_44718" cx="0" cy="0" r="1" gradientUnits="userSpaceOnUse" gradientTransform="translate(47.6376 26.6379) scale(15.6283 15.6283)">
<stop stop-color="#A80D00"/>
<stop offset="0.99" stop-color="#7E0E08"/>
<stop offset="1" stop-color="#7E0E08"/>
</radialGradient>
<radialGradient id="paint13_radial_7426_44718" cx="0" cy="0" r="1" gradientUnits="userSpaceOnUse" gradientTransform="translate(25.9943 47.2334) scale(20.7758 20.7758)">
<stop stop-color="#A30C00"/>
<stop offset="0.99" stop-color="#800E08"/>
<stop offset="1" stop-color="#800E08"/>
</radialGradient>
<linearGradient id="paint14_linear_7426_44718" x1="11.2769" y1="63.2426" x2="6.09995" y2="45.6788" gradientUnits="userSpaceOnUse">
<stop stop-color="#8B2114"/>
<stop offset="0.43" stop-color="#9E100A"/>
<stop offset="0.99" stop-color="#B3100C"/>
<stop offset="1" stop-color="#B3100C"/>
</linearGradient>
<linearGradient id="paint15_linear_7426_44718" x1="50.9924" y1="5.04073" x2="62.5987" y2="10.1639" gradientUnits="userSpaceOnUse">
<stop stop-color="#B31000"/>
<stop offset="0.44" stop-color="#910F08"/>
<stop offset="0.99" stop-color="#791C12"/>
<stop offset="1" stop-color="#791C12"/>
</linearGradient>
</defs>
</svg>
