<svg width="160" height="160" viewBox="0 0 160 160" fill="none" xmlns="http://www.w3.org/2000/svg">
<path fill-rule="evenodd" clip-rule="evenodd" d="M124.315 13.4658C116.72 8.38702 107.29 4.22412 98.1933 1.97615C88.3456 -0.022085 76.4531 -0.849824 66.0629 1.14357C33.5153 7.38792 7.97794 32.1156 1.38495 63.9202C0.0496664 70.5808 -0.2007 73.9944 0.133122 83.236C0.633855 95.1419 1.63532 100.137 5.80809 110.545C11.1492 124.199 16.9911 129.611 20.4128 124.366C21.8315 122.201 21.8315 122.034 19.5782 118.288C15.9062 112.127 12.4845 104.3 11.1492 98.8886C6.7261 81.9872 8.47867 63.5039 15.9062 48.6839C24.5021 31.5328 39.7745 18.4612 58.3016 12.3002C65.896 9.71915 72.802 9.03223 80 9.03223C87.511 9.03223 94.0205 9.63589 101.532 12.2169C108.542 14.5481 121.728 21.2088 121.728 22.3744C121.728 22.7074 117.054 27.5364 111.379 33.1979L100.947 43.6052L97.4422 42.4396C95.4393 41.7735 91.6003 39.6921 88.9297 37.8604C82.1333 33.3194 80.6942 32.3106 79.4961 32.5422C79.0906 32.6205 78.7127 32.841 78.164 33.1147C77.1625 33.6975 74.1581 35.6124 71.6545 37.4441C66.3968 41.3572 58.8858 43.9382 50.4568 44.6043C47.202 44.9373 43.6969 45.6866 42.612 46.3527L40.6925 47.5183L40.9428 70.1645C41.1098 82.6532 41.6105 93.4768 41.9443 94.3094C43.1127 96.8071 46.5344 97.6397 48.8711 96.141C50.7906 94.8922 50.874 94.4759 50.2064 90.0632C49.8726 87.4822 49.5388 78.1573 49.5388 69.4985V53.6794L54.2957 53.1799C61.1391 52.4306 70.4026 49.2667 75.243 46.0197C77.4963 44.521 79.5827 43.2722 79.8331 43.2722C80.0835 43.2722 82.0029 44.3545 84.0893 45.7699C89.0966 48.9337 98.4437 52.4306 101.949 52.4306C104.369 52.4306 106.288 50.8487 119.057 38.0269C126.985 30.1174 133.411 23.1237 133.411 22.5409C133.411 20.2097 131.325 18.1282 124.315 13.4658ZM158.615 64.0867C156.779 55.1781 152.857 45.1038 148.934 39.2758C145.763 34.4468 142.675 33.6142 140.422 37.0278C139.003 39.1925 139.086 39.359 142.842 46.436C152.356 64.6695 153.942 82.903 147.682 102.385C140.422 125.032 121.394 142.849 97.9429 149.176C88.5125 151.674 71.4875 151.674 62.0571 149.176C55.4641 147.345 43.7803 142.1 40.1083 139.269L38.2723 137.77L47.2855 128.778L56.2152 119.87L60.8052 123.616C65.8126 127.696 74.4085 132.275 78.5813 132.941C84.0893 133.774 96.1904 127.28 103.952 119.204C108.291 114.624 113.799 106.132 115.719 101.137C119.057 92.1447 121.31 71.3301 119.308 66.4179C118.139 63.4206 114.717 62.5048 112.548 64.503C111.045 65.8351 110.879 67.1672 110.879 75.2433C110.795 92.894 107.123 102.968 96.7745 113.292C89.4305 120.619 82.4202 124.532 78.4143 123.616C74.8258 122.867 66.4802 117.289 62.224 112.793C59.8038 110.378 57.8843 109.046 56.549 109.046C54.9634 109.046 51.041 112.46 40.5256 123.033C32.8477 130.776 26.5885 137.52 26.5885 138.186C26.5885 139.935 32.7642 145.263 39.1068 149.01C51.6251 156.503 64.6442 160 80 160C102.032 160 120.977 152.257 136.249 137.021C151.688 121.701 159.032 104.966 159.867 83.236C160.201 74.0777 159.95 70.4976 158.615 64.0867Z" fill="#FBBD00"/>
</svg>
