<svg width="160" height="160" viewBox="0 0 160 160" fill="none" xmlns="http://www.w3.org/2000/svg">
<g clip-path="url(#clip0_7493_45667)">
<path d="M45.7031 29.7656L40.3125 46.4062V55.0781L26.4844 48.5156H12.6562L4.45312 55.0781L12.6562 59.2969L26.4844 63.9844L24.6094 70.3125V77.8125H28.8281L60.7031 127.969L88.125 152.109L93.75 153.516L118.594 132.188L134.531 110.859L151.406 76.4062L153.281 61.875L143.203 57.1875L140.156 40.7812L134.531 29.7656L125.391 16.875L110.625 8.20312L95.3906 4.6875L75 7.03125L60.7031 14.0625L45.7031 29.7656Z" fill="#FAD54C" stroke="black"/>
<path d="M119.297 48.75C119.297 62.7297 104.917 74.0625 90.9375 74.0625C76.9578 74.0625 63.75 62.7297 63.75 48.75C63.75 34.7703 76.9578 23.4375 90.9375 23.4375C104.917 23.4375 119.297 34.7703 119.297 48.75Z" fill="white"/>
<path d="M80.75 0.687505C71.4375 2.25 60.125 7.43751 53.25 13.375C43.25 21.9375 36.25 35.25 36.25 45.625C36.25 47.25 36.0625 48.6875 35.875 48.9375C35.625 49.125 34.375 48.75 33.0625 48.0625C29.125 46.0625 22.6875 44.875 17.8125 45.125C11.5 45.5625 7.5625 47.4375 3.4375 52.125C1.5625 54.25 0 56.25 0 56.625C0 58.0625 11.125 62.375 22.375 65.375C22.9375 65.5 22.8125 66.125 21.875 67.625C19.9375 70.875 20.1875 75.75 22.5 79.8125C23.5625 81.625 24.625 83.125 24.875 83.125C25.125 83.125 26 82.6875 26.75 82.125C27.5625 81.5625 28.3125 81.25 28.4375 81.375C28.5625 81.5 30 84.6875 31.5625 88.4375C37 101.375 44.0625 113.625 52.375 124.375C61.0625 135.563 75.3125 148.875 86.6875 156.438L91.1875 159.438L95.9375 156.25C117.313 141.813 135.625 120.563 147 96.875C153.063 84.3125 160 63.875 160 58.625C160 54 154.5 49.375 149 49.375H146.438L146.063 44.8125C144.438 24.0625 126.813 6.00001 103.438 1.18751C97.375 -0.0624885 86.6875 -0.312495 80.75 0.687505ZM106.563 10.875C114.375 13.5625 119.125 16.5 125.063 22.4375C129.313 26.6875 130.938 28.875 132.75 32.6875C138 43.5 137.813 55.4375 132.375 65.6875C130.688 68.9375 130.125 69.4375 125.875 71.5C115.063 76.75 103.625 79.375 91.3125 79.375C78.6875 79.375 68 77 57 71.75L51.75 69.3125L49.625 64.8125C45.875 56.8125 44.875 49.5625 46.5625 41.5625C49.6875 26.625 62.0625 14.5 78.75 10C82.6875 8.93751 84.875 8.75001 92.5 8.93751C100.375 9.12501 102.188 9.37501 106.563 10.875ZM28.75 53.75C30.625 54.5625 32.875 55.6875 33.6875 56.1875L35.1875 57.125L33.0625 58C30 59.25 22.6875 58.625 16.4375 56.625C13.5625 55.6875 11.25 54.6875 11.25 54.4375C11.25 54.125 12.3125 53.4375 13.625 52.875C16.9375 51.4375 24.25 51.875 28.75 53.75ZM36.875 64.8125C36.875 65 36.1875 66.4375 35.25 67.9375C33.8125 70.4375 28.125 75.625 26.8125 75.625C25.9375 75.625 26.125 71.375 27.125 69.4375C28.4375 67 29.75 66.0625 33.0625 65.25C36.8125 64.3125 36.875 64.3125 36.875 64.8125ZM145.813 75.875C142.938 84.375 142.813 84.5625 139.688 86.9375C133.063 91.9375 122.375 95.625 114.438 95.625C110.25 95.625 109.625 96.3125 112.5 97.8125C118 100.688 127.625 101.25 133.625 99.125L136.313 98.125L134.313 101.75C127.75 113.5 119.438 124.188 109.313 134.063C102.313 140.875 92.625 148.75 91.25 148.75C88.75 148.75 68.9375 130.875 62.9375 123.188L60.125 119.625L65.625 119.875C73.125 120.25 84.25 117.625 79.25 116.625C69.625 114.813 66.6875 114.063 63.8125 112.75C60.375 111.188 59.5625 109.938 62.875 111.375C65.875 112.563 77.6875 112.25 83.125 110.75C85.6875 110.063 88.6875 109.125 89.6875 108.688L91.5625 107.938L89.6875 107.438C88.6875 107.188 84.5 106.375 80.375 105.625C66.6875 103.188 54.5625 98.375 46.75 92.25C42.5 88.875 40.125 85.5 37.9375 79.6875L36.25 75.3125L38 73.5625L39.8125 71.75L43.1875 73.9375C52.375 79.8125 64.75 84.625 75.625 86.625C83.75 88.125 98.9375 88.125 106.563 86.6875C114.563 85.125 123.187 82.3125 129.375 79.375C134.813 76.6875 146 69.625 147.5 67.8125C147.938 67.3125 148.375 66.9375 148.5 67.0625C148.625 67.1875 147.438 71.1875 145.813 75.875Z" fill="black"/>
<path d="M83.9375 22.75C75.0625 24.8125 66.75 31.1875 63.1875 38.75C61.75 41.75 61.5625 43 61.5625 48.75C61.5625 54.5625 61.75 55.6875 63.25 58.9375C70.25 73.8125 90 79.9375 106.062 72.125C121.438 64.6875 125.938 45.75 115.312 32.8125C108.625 24.625 94.9375 20.25 83.9375 22.75ZM108.188 29.375C112.875 31.8125 116.188 37.625 115.25 41.6875C114 47.0625 110 50.8125 104.312 52C97.125 53.5 89.6875 49.1875 88.1875 42.625C85.75 32.375 98.0625 24.25 108.188 29.375ZM84.125 55.9375C87.5 58.125 86.9375 63.375 83.125 65.3125C79.0625 67.4375 73.75 64.6875 73.75 60.5C73.8125 55.5 79.625 52.9375 84.125 55.9375Z" fill="black"/>
</g>
<defs>
<clipPath id="clip0_7493_45667">
<rect width="160" height="160" fill="white"/>
</clipPath>
</defs>
</svg>
