<svg width="140" height="141" viewBox="0 0 140 141" fill="none" xmlns="http://www.w3.org/2000/svg">
<g clip-path="url(#clip0_7426_44707)">
<path opacity="0.5" d="M67.946 13.681V0C33.524 5.059 6.16705 31.82 0.253052 65.957H14.022C19.616 39.306 41.005 18.468 67.946 13.681Z" fill="#231F20"/>
<path opacity="0.3" d="M67.946 26.106V13.681C41.005 18.467 19.616 39.306 14.022 65.957H26.534C31.709 46.05 47.75 30.53 67.946 26.106Z" fill="#231F20"/>
<path d="M106.786 60.393L96.579 70.623C96.878 71.204 97.22 71.745 97.469 72.369C98.409 74.721 98.88 77.294 98.88 80.071V80.254C98.88 83.096 98.408 85.664 97.469 87.957C96.534 90.26 95.234 92.248 93.575 93.939C91.911 95.635 89.901 96.929 87.551 97.833C85.19 98.739 82.59 99.195 79.751 99.195H68.971V98.293L55.502 111.795H79.751C84.706 111.795 89.25 110.977 93.393 109.348C97.53 107.713 101.097 105.484 104.084 102.634C107.079 99.798 109.387 96.45 111.019 92.576C112.651 88.711 113.467 84.543 113.467 80.07V79.894C113.467 75.422 112.651 71.268 111.019 67.427C109.924 64.852 108.494 62.521 106.785 60.392L106.786 60.393Z" fill="#F78D0A"/>
<path opacity="0.7" d="M68.9719 60.951H79.7519C82.5889 60.951 85.1899 61.418 87.5519 62.356C89.9019 63.293 91.9119 64.609 93.5759 66.296C94.7929 67.538 95.7509 69.024 96.5799 70.624L106.787 60.394C105.951 59.354 105.07 58.348 104.086 57.415C101.099 54.58 97.5319 52.361 93.3949 50.754C89.2529 49.155 84.7089 48.354 79.7529 48.354H55.0129V111.798H55.504L68.9729 98.296V60.953L68.9719 60.951Z" fill="#F78D0A"/>
<path opacity="0.3" d="M94.163 14.194V26.74C105.337 29.762 115.078 36.231 122.23 44.913L130.882 36.239C121.536 25.289 108.736 17.374 94.163 14.194Z" fill="#231F20"/>
<path d="M94.163 0.412018V14.193C108.736 17.373 121.535 25.288 130.882 36.238L140.439 26.657C128.651 13.219 112.494 3.70801 94.163 0.411011V0.412018ZM13.717 92.171H0C2.951 111.415 12.723 128.39 26.743 140.625L36.294 131.05C24.769 121.258 16.587 107.648 13.717 92.171Z" fill="#F78D0A"/>
<path opacity="0.3" d="M26.169 92.171H13.717C16.588 107.648 24.77 121.258 36.294 131.05L44.952 122.372C35.693 114.779 28.937 104.244 26.169 92.171Z" fill="#231F20"/>
</g>
<defs>
<clipPath id="clip0_7426_44707">
<rect width="140" height="141" fill="white"/>
</clipPath>
</defs>
</svg>
