<svg width="160" height="160" viewBox="0 0 160 160" fill="none" xmlns="http://www.w3.org/2000/svg">
<g clip-path="url(#clip0_7493_45568)">
<mask id="mask0_7493_45568" style="mask-type:alpha" maskUnits="userSpaceOnUse" x="0" y="49" width="160" height="62">
<path fill-rule="evenodd" clip-rule="evenodd" d="M30.7716 49C13.777 49 0 62.8023 0 79.8281C0 96.854 13.777 110.656 30.7716 110.656C40.8453 110.656 49.7885 105.807 55.4019 98.3107C61.0153 105.807 69.9584 110.656 80.0323 110.656C90.0865 110.656 99.0146 105.825 104.63 98.3538C110.245 105.825 119.173 110.656 129.228 110.656C146.223 110.656 160 96.854 160 79.8281C160 62.8023 146.223 49 129.228 49C119.173 49 110.245 53.831 104.63 61.3024C99.0146 53.831 90.0865 49 80.0323 49C69.9584 49 61.0153 53.8496 55.4019 61.3455C49.7885 53.8496 40.8453 49 30.7716 49ZM12.3087 79.8281C12.3087 90.0437 20.5749 98.325 30.7716 98.325C40.9684 98.325 49.235 90.0437 49.235 79.8281C49.235 69.6126 40.9684 61.3312 30.7716 61.3312C20.5749 61.3312 12.3087 69.6126 12.3087 79.8281ZM110.79 80.7845C110.799 80.4669 110.804 80.1481 110.804 79.8281C110.804 79.5082 110.799 79.1894 110.79 78.8718C111.286 69.1007 119.351 61.3312 129.228 61.3312C139.425 61.3312 147.691 69.6126 147.691 79.8281C147.691 90.0437 139.425 98.325 129.228 98.325C119.351 98.325 111.286 90.5555 110.79 80.7845ZM98.4709 78.8718C97.9742 69.1007 89.9091 61.3312 80.0323 61.3312C69.8354 61.3312 61.5695 69.6126 61.5695 79.8281C61.5695 90.0437 69.8354 98.325 80.0323 98.325C89.9091 98.325 97.9742 90.5555 98.4709 80.7845C98.461 80.4669 98.4565 80.1481 98.4565 79.8281C98.4565 79.5082 98.461 79.1894 98.4709 78.8718Z" fill="#1E961B"/>
</mask>
<g mask="url(#mask0_7493_45568)">
<g filter="url(#filter0_d_7493_45568)">
<path fill-rule="evenodd" clip-rule="evenodd" d="M12.3087 79.8281C12.3087 90.0437 20.5749 98.325 30.7716 98.325C40.9684 98.325 49.235 90.0437 49.235 79.8281C49.235 69.6126 40.9684 61.3312 30.7716 61.3312C20.5749 61.3312 12.3087 69.6126 12.3087 79.8281ZM30.7716 49C13.777 49 0 62.8023 0 79.8281C0 96.854 13.777 110.656 30.7716 110.656C47.7667 110.656 61.5433 96.854 61.5433 79.8281C61.5433 62.8023 47.7667 49 30.7716 49Z" fill="url(#paint0_linear_7493_45568)"/>
</g>
<path fill-rule="evenodd" clip-rule="evenodd" d="M110.765 79.8281C110.765 90.0437 119.031 98.325 129.228 98.325C139.425 98.325 147.691 90.0437 147.691 79.8281C147.691 69.6126 139.425 61.3312 129.228 61.3312C119.031 61.3312 110.765 69.6126 110.765 79.8281ZM129.228 49C112.234 49 98.4565 62.8023 98.4565 79.8281C98.4565 96.854 112.234 110.656 129.228 110.656C146.223 110.656 160 96.854 160 79.8281C160 62.8023 146.223 49 129.228 49Z" fill="url(#paint1_linear_7493_45568)"/>
<path fill-rule="evenodd" clip-rule="evenodd" d="M61.5695 79.8281C61.5695 90.0437 69.8354 98.325 80.0323 98.325C90.2291 98.325 98.4957 90.0437 98.4957 79.8281C98.4957 69.6126 90.2291 61.3312 80.0323 61.3312C69.8354 61.3312 61.5695 69.6126 61.5695 79.8281ZM80.0323 49C63.0377 49 49.2611 62.8023 49.2611 79.8281C49.2611 96.854 63.0377 110.656 80.0323 110.656C97.0274 110.656 110.804 96.854 110.804 79.8281C110.804 62.8023 97.0274 49 80.0323 49Z" fill="#1E961B"/>
<path d="M79.9945 98.326C69.7977 98.326 61.5317 90.0448 61.5317 79.8295H61.5461C61.5461 62.8036 47.7688 49.0013 30.7744 49.0013C13.7797 49.0013 0.00274658 62.8036 0.00274658 79.8295H12.3115C12.3115 69.6139 20.5776 61.3326 30.7744 61.3326C40.9712 61.3326 49.2371 69.6137 49.2371 79.8291H49.2227C49.2227 96.855 63 110.657 79.9945 110.657C96.989 110.657 110.766 96.8552 110.766 79.8295H110.768C110.768 69.6139 119.034 61.3326 129.23 61.3326C139.427 61.3326 147.693 69.6139 147.693 79.8295H160.002C160.002 62.8036 146.225 49.0013 129.23 49.0013C112.236 49.0013 98.4593 62.8034 98.4586 79.8291H98.4573C98.4573 90.0446 90.1914 98.326 79.9945 98.326Z" fill="#F2F8FF"/>
<path d="M79.9945 98.326C69.7977 98.326 61.5317 90.0448 61.5317 79.8295H61.5461C61.5461 62.8036 47.7688 49.0013 30.7744 49.0013C13.7797 49.0013 0.00274658 62.8036 0.00274658 79.8295H12.3115C12.3115 69.6139 20.5776 61.3326 30.7744 61.3326C40.9712 61.3326 49.2371 69.6137 49.2371 79.8291H49.2227C49.2227 96.855 63 110.657 79.9945 110.657C96.989 110.657 110.766 96.8552 110.766 79.8295H110.768C110.768 69.6139 119.034 61.3326 129.23 61.3326C139.427 61.3326 147.693 69.6139 147.693 79.8295H160.002C160.002 62.8036 146.225 49.0013 129.23 49.0013C112.236 49.0013 98.4593 62.8034 98.4586 79.8291H98.4573C98.4573 90.0446 90.1914 98.326 79.9945 98.326Z" fill="#2ED02A"/>
</g>
</g>
<defs>
<filter id="filter0_d_7493_45568" x="-8" y="45" width="69.5433" height="69.6562" filterUnits="userSpaceOnUse" color-interpolation-filters="sRGB">
<feFlood flood-opacity="0" result="BackgroundImageFix"/>
<feColorMatrix in="SourceAlpha" type="matrix" values="0 0 0 0 0 0 0 0 0 0 0 0 0 0 0 0 0 0 127 0" result="hardAlpha"/>
<feOffset dx="-4"/>
<feGaussianBlur stdDeviation="2"/>
<feColorMatrix type="matrix" values="0 0 0 0 0 0 0 0 0 0 0 0 0 0 0 0 0 0 0.23 0"/>
<feBlend mode="normal" in2="BackgroundImageFix" result="effect1_dropShadow_7493_45568"/>
<feBlend mode="normal" in="SourceGraphic" in2="effect1_dropShadow_7493_45568" result="shape"/>
</filter>
<linearGradient id="paint0_linear_7493_45568" x1="16.2508" y1="62.0643" x2="74.7212" y2="87.0777" gradientUnits="userSpaceOnUse">
<stop offset="0.285554" stop-color="#2ED02A"/>
<stop offset="0.572917" stop-color="#1E961B"/>
</linearGradient>
<linearGradient id="paint1_linear_7493_45568" x1="157.249" y1="67.4812" x2="96.7075" y2="91.22" gradientUnits="userSpaceOnUse">
<stop offset="0.285554" stop-color="#2ED02A"/>
<stop offset="0.762026" stop-color="#1E961B"/>
</linearGradient>
<clipPath id="clip0_7493_45568">
<rect width="160" height="160" fill="white"/>
</clipPath>
</defs>
</svg>
