<svg width="160" height="160" viewBox="0 0 160 160" fill="none" xmlns="http://www.w3.org/2000/svg">
<path fill-rule="evenodd" clip-rule="evenodd" d="M143.102 25.3362L98.5844 70.4352L104.066 76.3428L150 29.8098C149.97 34.1546 149.827 38.4755 149.573 42.7582L110.311 83.7813L115.879 89.5998L148.475 55.5423C147.953 60.1637 147.301 64.7213 146.522 69.196L120.52 97.7941C118.657 99.8442 115.542 99.8859 113.628 97.8864L86.6757 69.7249C81.7842 64.6141 73.8762 64.539 68.8966 69.556L26.2268 112.548C24.8241 109.377 23.5054 106.093 22.2735 102.709L52.161 71.4806C53.0396 70.5626 54.4641 70.5626 55.3427 71.4806L58.127 74.3898L63.6957 68.5714L60.9114 65.6621C56.9573 61.5307 50.5464 61.5307 46.5923 65.6621L19.3883 94.0863C18.1633 90.0912 17.0517 85.9815 16.0572 81.7751L26.731 71.1179C27.3446 70.5053 28.3251 70.5586 28.8745 71.2345L31.4233 74.3706L37.4262 69.0443L34.8774 65.9082C31.3952 61.6237 25.1796 61.2855 21.2902 65.1688L14.0625 72.3852C11.3988 58.3043 10 43.3421 10 28.1081L80.0029 0L143.102 25.3362ZM29.92 120.258C30.1132 120.63 30.3076 121.001 30.5034 121.37C45.0015 142.703 60.3146 150.857 80.0029 160L80.3841 159.823C99.8612 150.779 112.925 144.713 129.502 121.37C135.201 110.633 139.816 98.2362 143.214 84.7823L126.23 103.462C121.316 108.866 113.105 108.976 108.06 103.705L81.1069 75.5434C79.2516 73.6048 76.252 73.5763 74.3632 75.4793L29.92 120.258Z" fill="url(#paint0_linear_7493_45524)"/>
<defs>
<linearGradient id="paint0_linear_7493_45524" x1="80" y1="0" x2="80" y2="160" gradientUnits="userSpaceOnUse">
<stop stop-color="#409BF4"/>
<stop offset="1" stop-color="#346AA6"/>
</linearGradient>
</defs>
</svg>
