<svg width="132" height="131" viewBox="0 0 132 131" fill="none" xmlns="http://www.w3.org/2000/svg">
<g clip-path="url(#clip0_7433_44848)">
<path d="M65.3471 0C31.9269 0 34.0126 14.599 34.0126 14.599L34.0537 29.7244H65.9436V34.262H21.3792C21.3792 34.262 0 31.8171 0 65.7889C0 99.7526 18.6641 98.5508 18.6641 98.5508H29.8042V82.7873C29.8042 82.7873 29.2036 63.9863 48.1722 63.9863H79.7988C79.7988 63.9863 97.5702 64.2764 97.5702 46.6855V17.5992C97.5702 17.5992 100.269 0 65.3471 0ZM47.7608 10.1692C50.9325 10.1692 53.4995 12.755 53.4995 15.95C53.4995 19.1449 50.9325 21.7307 47.7608 21.7307C47.0069 21.7318 46.2602 21.583 45.5634 21.2929C44.8667 21.0028 44.2336 20.577 43.7005 20.04C43.1674 19.503 42.7447 18.8653 42.4567 18.1635C42.1687 17.4616 42.021 16.7094 42.0221 15.95C42.0221 12.755 44.5891 10.1692 47.7608 10.1692Z" fill="url(#paint0_linear_7433_44848)"/>
<path d="M66.6528 131C100.073 131 97.9874 116.582 97.9874 116.582L97.9462 101.644H66.0563V97.1622H110.617C110.617 97.1622 132 99.5769 132 66.0297C132 32.4825 113.336 33.6734 113.336 33.6734H102.196V49.2377C102.196 49.2377 102.796 67.8059 83.8278 67.8059H52.2012C52.2012 67.8059 34.4297 67.5194 34.4297 84.8926V113.619C34.4297 113.619 31.7311 131 66.6528 131ZM84.2392 120.957C83.4852 120.958 82.7385 120.811 82.0418 120.524C81.345 120.238 80.712 119.817 80.1789 119.287C79.6458 118.757 79.2231 118.127 78.9351 117.434C78.6471 116.74 78.4994 115.998 78.5005 115.248C78.5005 112.096 81.0674 109.542 84.2392 109.542C87.4109 109.542 89.9779 112.092 89.9779 115.248C89.9779 118.407 87.4109 120.957 84.2392 120.957Z" fill="url(#paint1_linear_7433_44848)"/>
</g>
<defs>
<linearGradient id="paint0_linear_7433_44848" x1="12.6498" y1="11.5284" x2="78.219" y2="76.8384" gradientUnits="userSpaceOnUse">
<stop stop-color="#387EB8"/>
<stop offset="1" stop-color="#366994"/>
</linearGradient>
<linearGradient id="paint1_linear_7433_44848" x1="53.0527" y1="53.4408" x2="122.617" y2="120.431" gradientUnits="userSpaceOnUse">
<stop stop-color="#FFE052"/>
<stop offset="1" stop-color="#FFC331"/>
</linearGradient>
<clipPath id="clip0_7433_44848">
<rect width="132" height="131" fill="white"/>
</clipPath>
</defs>
</svg>
